# xmcd
#
# Track frame offsets:
#	150
#	14448
#	25756
#	37511
#	51209
#	64092
#	77498
#	91267
#	104074
#	117243
#	129965
#	143663
#	155943
#	167625
#	178843
#	190451
#	201974
#	230147
#	242278
#	256885
#	267517
#	281062
#	295207
#	310925
#	328457
#
# Disc length: 4549 seconds
#
# Revision: 1
# Processed by: cddbd v1.5.2PL0 Copyright (c) Steve Scherf et al.
# Submitted via: audiograbber 1.83.01
#
DISCID=6e11c319
DTITLE=B.B. King - The Best Of The Early Years
DYEAR=2007
DGENRE=Blues
TTITLE0=B.B. Boogie
TTITLE1=She's Dynamite
TTITLE2=Shake It Up And Go
TTITLE3=3 O'Clock Blues
TTITLE4=Please Love Me
TTITLE5=Woke Up This Morning
TTITLE6=You Upset Me, Baby
TTITLE7=Every Day I Have The Blues
TTITLE8=When My Heart Beats Like A Hammer
TTITLE9=Ten Long Years
TTITLE10=Sweet Little Angel
TTITLE11=Don't Look Now, But I've Got The Blues
TTITLE12=Early In The Morning
TTITLE13=Days Of Old
TTITLE14=Mean Ole Frisco
TTITLE15=Catfish Blues (Fishin' After Me)
TTITLE16=Sweet Sixteen (Pt. 1 and 2)
TTITLE17=I'll Survive
TTITLE18=Downhearted (How Blue Can You Get)
TTITLE19=Bad Case Of Love
TTITLE20=Rock Me Baby
TTITLE21=Blues Stay Away From Me
TTITLE22=Five Long Years
TTITLE23=That Evil Child
TTITLE24=Why I Sing The Blues
EXTD=
EXTT0=
EXTT1=
EXTT2=
EXTT3=
EXTT4=
EXTT5=
EXTT6=
EXTT7=
EXTT8=
EXTT9=
EXTT10=
EXTT11=
EXTT12=
EXTT13=
EXTT14=
EXTT15=
EXTT16=
EXTT17=
EXTT18=
EXTT19=
EXTT20=
EXTT21=
EXTT22=
EXTT23=
EXTT24=
PLAYORDER=
